<svg id="Layer_1" data-name="Layer 1" xmlns="http://www.w3.org/2000/svg" xmlns:xlink="http://www.w3.org/1999/xlink" viewBox="0 0 1366 768">
	<defs>
		<linearGradient id="linear-gradient" x1="43.5" y1="400.48" x2="393.04" y2="400.48" gradientTransform="matrix(1, 0, 0, -1, 0, 770)" gradientUnits="userSpaceOnUse">
			<stop offset="0" stop-color="#00bbfe"/>
			<stop offset="1" stop-color="#0b66bf"/>
		</linearGradient>
	</defs>
	<title>Untitled-1</title>
	<path d="M305.78,517.85c-17.83,17.63-39.62,36-66,55.27a36.29,36.29,0,0,1-42.39,0,568.21,568.21,0,0,1-65.37-55.07l-27-29.32a341.8,341.8,0,0,1-37.63-54.87C34.19,372.45,45.28,307.27,45.28,307.27,58.35,223.08,132.05,158.5,219.6,159.1a174.5,174.5,0,0,1,138.87,70.32L284,279.34a85.14,85.14,0,0,0-70.52-30.7c-43.58,2.37-78.64,38-80.42,81.61A85.42,85.42,0,0,0,284,388.49a94.45,94.45,0,0,0,9.51-13.86H263.78L218.42,335.8l40.8-38.63h130a169.17,169.17,0,0,1,3.57,24.57s3,45.16-9.71,80.22c-6.34,20.21-20,50.52-50.31,86.77Z" fill="url(#linear-gradient)"/>
	<g>
		<path d="M487,501c-11.68,0-21.59-3.56-29.51-10.89C449.59,483,445.43,473.48,445,462V364.92h41.6v81.81c.39,5.75,1.78,10.31,4.55,13.87,2.58,3.57,6.94,5.15,13.08,5.15a21.51,21.51,0,0,0,15.85-6.34c4.55-4.16,7.92-9.9,10.49-17a78,78,0,0,0,3.77-24.57V364.92H576V494.67H538.34L535,470.9l.6,2.58a56.14,56.14,0,0,1-11.29,14.26A49.36,49.36,0,0,1,508,497.45,59.28,59.28,0,0,1,487,501Z" fill="#0b66bf"/>
		<path d="M656.41,364.92l3.36,23.18-.59-2a53.08,53.08,0,0,1,19.41-19.81c8.52-5.15,18.43-7.53,30.71-7.53s22.58,3.57,30.7,10.89a37.21,37.21,0,0,1,12.68,28.13v97.07h-41.6V413.06c-.2-5.75-1.78-10.3-4.56-13.87-3-3.37-7.72-5.15-14.46-5.15a24.59,24.59,0,0,0-16.64,6.34,38.9,38.9,0,0,0-10.89,16.84,72.82,72.82,0,0,0-4,24.76v52.89H619V365.12h37.44Z" fill="#0b66bf"/>
		<path d="M794.28,319c0-6.14,2.38-11.09,7.33-15.25a24.16,24.16,0,0,1,15.65-5.94,22.78,22.78,0,0,1,15.25,5.94A19.46,19.46,0,0,1,839.45,319,19.08,19.08,0,0,1,832.51,334a22.92,22.92,0,0,1-15.25,5.74c-5.55,0-10.7-2-15.65-5.74A18.31,18.31,0,0,1,794.28,319Zm1,46h41.6V494.67h-41.6Z" fill="#0b66bf"/>
		<path d="M1063.89,472.88c-2.58,2.78-6.74,5.55-12.08,8.52a116.76,116.76,0,0,1-19.22,7.92,173.86,173.86,0,0,1-22.19,5.75A103.47,103.47,0,0,1,989,497.25c-17.83,0-33.87-2.58-48.14-7.93a104.84,104.84,0,0,1-36.65-22,94.27,94.27,0,0,1-23.17-33.48c-5.35-12.88-7.93-26.94-7.93-42.2,0-20,3-37.44,9.12-52.1,5.94-14.66,14.26-27.14,24.76-36.84a102.57,102.57,0,0,1,35.85-21.79,127.18,127.18,0,0,1,42.59-7.13,156.55,156.55,0,0,1,38.63,4.55c11.69,3.17,21.6,6.94,29.72,11.49l-13.87,40.22a85.54,85.54,0,0,0-14.26-5.95c-6-2-12.09-3.56-18.23-4.95a87.83,87.83,0,0,0-16.44-2,101.25,101.25,0,0,0-31.5,4.56,58.86,58.86,0,0,0-23,13.47,54.74,54.74,0,0,0-14.06,22.18c-3.17,8.92-4.75,19-4.75,30.71A68.65,68.65,0,0,0,923,415.83a57.64,57.64,0,0,0,15.06,21,64.75,64.75,0,0,0,22.78,13.07,91.09,91.09,0,0,0,29.32,4.56,92.63,92.63,0,0,0,17-1.39,38.85,38.85,0,0,0,13.08-4.36V422H982.67v-41.6h81.42v92.51Z" fill="#0b66bf"/>
		<path d="M1099.55,385.72a107.79,107.79,0,0,1,8.52-42.79,114.77,114.77,0,0,1,24-35.85,110.64,110.64,0,0,1,35.45-24.57,109.59,109.59,0,0,1,86.57,0,117,117,0,0,1,60.22,60.42,108,108,0,0,1,8.72,42.79,108.86,108.86,0,0,1-33.08,78.84,115,115,0,0,1-35.86,24,109.13,109.13,0,0,1-43.18,8.72,106.09,106.09,0,0,1-43.39-8.72,110.52,110.52,0,0,1-67.94-102.81Zm44.57,0a71.89,71.89,0,0,0,5.15,27.14,70.11,70.11,0,0,0,14.46,22.38,66.47,66.47,0,0,0,48.73,20.41,62.94,62.94,0,0,0,47-20.41,69.84,69.84,0,0,0,13.87-22.38,71.81,71.81,0,0,0,5-27.14,75.75,75.75,0,0,0-5.15-27.73,74.67,74.67,0,0,0-14.26-22.39,66.66,66.66,0,0,0-21.2-15.05,64.52,64.52,0,0,0-26.35-5.35,65.42,65.42,0,0,0-26.54,5.35,64.56,64.56,0,0,0-21.4,15.05A69.72,69.72,0,0,0,1149.07,358,75.64,75.64,0,0,0,1144.12,385.72Z" fill="#0b66bf"/>
	</g>
</svg>
