<svg width="27" height="27" viewBox="0 0 27 27" fill="none" xmlns="http://www.w3.org/2000/svg">
<path fill-rule="evenodd" clip-rule="evenodd" d="M13.3784 0C20.5879 0 26.4324 5.8445 26.4324 13.0541C26.4324 20.2636 20.5879 26.1081 13.3784 26.1081C6.16884 26.1081 0.324341 20.2636 0.324341 13.0541C0.324341 5.8445 6.16884 0 13.3784 0ZM16.8562 11.3997C16.7927 10.8839 16.6342 10.4789 16.3527 10.1201C15.9871 9.65818 15.5199 9.38157 14.8282 9.21748C14.3774 9.10811 14.1953 9.12066 14.0323 9.26959C13.8804 9.40911 13.8508 9.68881 13.9668 9.86994C14.0484 10.0014 14.1426 10.0485 14.4044 10.0999C14.7531 10.1641 14.9941 10.2473 15.2133 10.3727C15.6786 10.6413 15.8953 11.0618 15.9185 11.7424C15.9294 12.062 15.957 12.1602 16.0686 12.2736C16.2755 12.4807 16.6436 12.4404 16.7998 12.1925C16.8571 12.0991 16.8659 12.0584 16.8719 11.8414C16.8759 11.707 16.8701 11.5071 16.8562 11.3997ZM16.8625 8.23503C17.9687 9.12957 18.5868 10.401 18.6787 11.9813C18.7173 12.6037 18.666 12.8064 18.4464 12.9219C18.2482 13.0289 18.0237 12.9937 17.8697 12.8326C17.7677 12.7278 17.7285 12.5845 17.73 12.3308C17.7345 11.6293 17.5728 10.8458 17.3101 10.3022C17.0059 9.66954 16.5358 9.13111 15.9444 8.73746C15.4263 8.39172 14.7407 8.15819 14.076 8.10003C13.6448 8.06231 13.4908 7.98928 13.4081 7.78258C13.3568 7.65893 13.3704 7.44516 13.4305 7.34942C13.4873 7.26114 13.6148 7.16351 13.705 7.1377C13.8005 7.10982 14.3575 7.15855 14.66 7.21867C15.4858 7.38675 16.2392 7.73239 16.8625 8.23503ZM20.6953 18.067C20.6644 17.9767 20.5923 17.8373 20.5407 17.7573C20.2161 17.2671 18.4719 15.9021 17.6011 15.4557C17.1039 15.2003 16.7354 15.1152 16.4623 15.1951C16.1686 15.2777 16.014 15.4144 15.522 16.026C15.3236 16.2711 15.1201 16.5008 15.0659 16.5369C14.932 16.6298 14.6692 16.7046 14.4837 16.7046C14.0534 16.702 13.2728 16.4234 12.6725 16.0569C12.2062 15.7731 11.6085 15.2648 11.1499 14.7617C10.6088 14.1708 10.2404 13.6496 9.94926 13.0613C9.57313 12.3052 9.4778 11.8434 9.63494 11.5053C9.67359 11.4202 9.72513 11.3299 9.74829 11.3015C9.77149 11.2757 10.0137 11.077 10.2816 10.8603C10.8072 10.4423 10.8922 10.3468 10.9901 10.0604C11.1138 9.69656 11.0803 9.32501 10.8896 8.95088C10.7428 8.66704 10.3589 8.04778 10.0807 7.64784C9.71224 7.12149 8.79505 5.99649 8.6121 5.84421C8.28233 5.57589 7.85985 5.52941 7.39348 5.71007C6.90143 5.90101 5.97906 6.64412 5.58487 7.16277C5.22933 7.63237 5.09282 7.96521 5.07219 8.40386C5.05417 8.76508 5.08507 8.91474 5.27573 9.37663C6.76745 12.9993 8.99341 15.8918 12.0516 18.1883C13.6489 19.3881 15.3055 20.3015 17.024 20.926C18.0262 21.2898 18.4616 21.3078 18.9743 21.0085C19.1907 20.8795 19.7266 20.3299 20.0254 19.93C20.5201 19.2642 20.703 18.9572 20.7546 18.7121C20.7906 18.5444 20.7623 18.2528 20.6953 18.067ZM20.0366 9.89961C20.3504 10.7171 20.5009 11.4503 20.5339 12.3442C20.5391 12.5208 20.5367 12.8443 20.5253 13.0635C20.5014 13.4836 20.4786 13.5671 20.3577 13.6782C20.1633 13.8607 19.7843 13.8172 19.6406 13.5973C19.5656 13.4794 19.5551 13.393 19.5696 12.9022C19.6113 11.4502 19.3176 10.3133 18.6102 9.17653C17.7648 7.81268 16.5004 6.89392 14.8561 6.44444C14.4368 6.33003 14.0834 6.2603 13.5338 6.18631C13.1758 6.13945 13.0974 6.11964 13.0091 6.06526C12.7422 5.89431 12.7386 5.46142 13.0047 5.28786C13.142 5.19624 13.2432 5.19215 13.6908 5.24946C15.0032 5.41347 16.1742 5.80343 17.1365 6.39271C17.8262 6.81565 18.2611 7.1956 18.8209 7.86105C19.4132 8.57076 19.7267 9.09549 20.0366 9.89961Z" fill="#0B66BF"/>
</svg>
