<svg width="13" height="13" viewBox="0 0 13 13" fill="none" xmlns="http://www.w3.org/2000/svg">
    <path d="M11.3425 5.95841C11.0933 3.69966 9.30041 1.90675 7.04166 1.65758V1.08341C7.04166 0.785498 6.79791 0.541748 6.5 0.541748C6.20208 0.541748 5.95833 0.785498 5.95833 1.08341V1.65758C3.69958 1.90675 1.90666 3.69966 1.6575 5.95841H1.08333C0.785414 5.95841 0.541664 6.20216 0.541664 6.50008C0.541664 6.798 0.785414 7.04175 1.08333 7.04175H1.6575C1.90666 9.3005 3.69958 11.0934 5.95833 11.3426V11.9167C5.95833 12.2147 6.20208 12.4584 6.5 12.4584C6.79791 12.4584 7.04166 12.2147 7.04166 11.9167V11.3426C9.30041 11.0934 11.0933 9.3005 11.3425 7.04175H11.9167C12.2146 7.04175 12.4583 6.798 12.4583 6.50008C12.4583 6.20216 12.2146 5.95841 11.9167 5.95841H11.3425ZM6.5 10.2917C4.40375 10.2917 2.70833 8.59633 2.70833 6.50008C2.70833 4.40383 4.40375 2.70841 6.5 2.70841C8.59625 2.70841 10.2917 4.40383 10.2917 6.50008C10.2917 8.59633 8.59625 10.2917 6.5 10.2917Z" fill="#0B66BF"/>
</svg>