<svg width="16" height="16" viewBox="0 0 16 16" fill="none" xmlns="http://www.w3.org/2000/svg">
    <path d="M9.33333 7.66659C9.5522 7.66659 9.76893 7.62348 9.97114 7.53972C10.1733 7.45596 10.3571 7.33319 10.5118 7.17843C10.6666 7.02367 10.7894 6.83993 10.8731 6.63772C10.9569 6.43552 11 6.21879 11 5.99992C11 5.55789 10.8244 5.13397 10.5118 4.82141C10.1993 4.50885 9.77536 4.33325 9.33333 4.33325C8.89131 4.33325 8.46738 4.50885 8.15482 4.82141C7.84226 5.13397 7.66667 5.55789 7.66667 5.99992C7.66667 6.21879 7.70978 6.43552 7.79353 6.63772C7.87729 6.83993 8.00006 7.02367 8.15482 7.17843C8.46738 7.49099 8.89131 7.66659 9.33333 7.66659ZM9.33333 1.33325C11.9067 1.33325 14 3.41992 14 5.99992C14 9.49992 9.33333 14.6666 9.33333 14.6666C9.33333 14.6666 4.66667 9.49992 4.66667 5.99992C4.66667 4.76224 5.15833 3.57526 6.0335 2.70009C6.90867 1.82492 8.09566 1.33325 9.33333 1.33325ZM3.33333 5.99992C3.33333 8.99992 6.72 13.1066 7.33333 13.8733L6.66667 14.6666C6.66667 14.6666 2 9.49992 2 5.99992C2 3.88659 3.40667 2.09992 5.33333 1.52659C4.10667 2.62659 3.33333 4.21992 3.33333 5.99992Z" fill="#66A5E1"/>
</svg>