<svg width="14" height="15" viewBox="0 0 14 15" fill="none" xmlns="http://www.w3.org/2000/svg">
<path d="M7.50552 12.9428C7.20472 13.176 6.77857 13.176 6.47777 12.9428L1.339 8.96169C1.0382 8.72848 0.620412 8.72848 0.319606 8.96169C-0.106535 9.29484 -0.106535 9.93615 0.319606 10.2693L5.96807 14.6502C6.56968 15.1166 7.41361 15.1166 8.02358 14.6502L13.672 10.2693C14.0982 9.93615 14.0982 9.29484 13.672 8.96169L13.6637 8.95336C13.3629 8.72015 12.9451 8.72015 12.6443 8.95336L7.50552 12.9428ZM8.03193 10.4275L13.6804 6.04664C14.1065 5.71349 14.1065 5.06385 13.6804 4.7307L8.03193 0.349806C7.43032 -0.116602 6.58639 -0.116602 5.97643 0.349806L0.327962 4.73903C-0.0981795 5.07218 -0.0981795 5.72182 0.327962 6.05497L5.97643 10.4359C6.57804 10.9023 7.43032 10.9023 8.03193 10.4275Z" fill="#0B66BF"/>
</svg>