<svg width="20" height="17" viewBox="0 0 20 17" fill="none" xmlns="http://www.w3.org/2000/svg">
<path d="M11.3355 13.9408H2.12495C1.49172 13.9408 0.973633 14.4589 0.973633 15.0921C0.973633 15.7253 1.49172 16.2434 2.12495 16.2434H11.3355C11.9687 16.2434 12.4868 15.7253 12.4868 15.0921C12.4868 14.4589 11.9687 13.9408 11.3355 13.9408ZM18.2434 4.73026H2.12495C1.49172 4.73026 0.973633 5.24836 0.973633 5.88158C0.973633 6.5148 1.49172 7.0329 2.12495 7.0329H18.2434C18.8766 7.0329 19.3947 6.5148 19.3947 5.88158C19.3947 5.24836 18.8766 4.73026 18.2434 4.73026ZM2.12495 11.6382H18.2434C18.8766 11.6382 19.3947 11.1201 19.3947 10.4868C19.3947 9.85362 18.8766 9.33553 18.2434 9.33553H2.12495C1.49172 9.33553 0.973633 9.85362 0.973633 10.4868C0.973633 11.1201 1.49172 11.6382 2.12495 11.6382ZM0.973633 1.27632C0.973633 1.90954 1.49172 2.42763 2.12495 2.42763H18.2434C18.8766 2.42763 19.3947 1.90954 19.3947 1.27632C19.3947 0.643092 18.8766 0.125 18.2434 0.125H2.12495C1.49172 0.125 0.973633 0.643092 0.973633 1.27632Z" fill="#0B66BF"/>
</svg>