<svg width="9" height="12" viewBox="0 0 9 12" fill="none" xmlns="http://www.w3.org/2000/svg">
<path d="M4.22917 5.95833C4.407 5.95833 4.58309 5.92331 4.74738 5.85525C4.91168 5.7872 5.06096 5.68745 5.18671 5.56171C5.31245 5.43596 5.4122 5.28668 5.48025 5.12238C5.54831 4.95809 5.58333 4.782 5.58333 4.60417C5.58333 4.24502 5.44066 3.90058 5.18671 3.64663C4.93275 3.39267 4.58831 3.25 4.22917 3.25C3.87002 3.25 3.52558 3.39267 3.27163 3.64663C3.01767 3.90058 2.875 4.24502 2.875 4.60417C2.875 4.782 2.91003 4.95809 2.97808 5.12238C3.04613 5.28668 3.14588 5.43596 3.27163 5.56171C3.52558 5.81566 3.87002 5.95833 4.22917 5.95833ZM4.22917 0.8125C6.32 0.8125 8.02083 2.50792 8.02083 4.60417C8.02083 7.44792 4.22917 11.6458 4.22917 11.6458C4.22917 11.6458 0.4375 7.44792 0.4375 4.60417C0.4375 3.59855 0.836978 2.63413 1.54805 1.92305C2.25913 1.21198 3.22355 0.8125 4.22917 0.8125Z" fill="#0B66BF"/>
</svg>