<svg width="20" height="20" viewBox="0 0 20 20" fill="none" xmlns="http://www.w3.org/2000/svg">
<path d="M9.95978 4.71826C8.39298 4.71846 6.84058 5.39186 7.00378 6.73746L7.40378 9.66226C7.47398 10.1769 7.82178 10.9999 8.34118 10.9999H8.37818L8.80358 15.9061C8.82198 16.1269 8.98198 16.3061 9.20358 16.3061H10.8036C11.0252 16.3061 11.1852 16.1269 11.2036 15.9061L11.629 10.9999H11.6662C12.1856 10.9999 12.5332 10.1769 12.6036 9.66226L13.0036 6.73746C13.1084 5.39066 11.5268 4.71786 9.95978 4.71826Z" fill="white"/>
<path d="M10.0047 10.1816L9.99512 10.2068C9.99832 10.1992 10.0005 10.1914 10.0037 10.1838L10.0047 10.1816Z" fill="white"/>
<path d="M10.0001 4.2C11.1599 4.2 12.1001 3.2598 12.1001 2.1C12.1001 0.940202 11.1599 0 10.0001 0C8.84035 0 7.90015 0.940202 7.90015 2.1C7.90015 3.2598 8.84035 4.2 10.0001 4.2Z" fill="white"/>
<path d="M12.1844 13.8184C12.1674 14.0128 12.1494 14.2068 12.1324 14.4012C13.9228 14.654 15.25 15.2276 15.4 15.9372C15.6234 16.9924 12.1716 17.4672 9.948 17.445C7.7244 17.4226 4.3362 16.9924 4.6324 15.937C4.8268 15.2444 6.1348 14.6822 7.8784 14.4204C7.861 14.2254 7.8412 14.0304 7.8244 13.8356C5.5832 14.0828 3.716 14.6914 2.97 15.4848H0.4458L0 16.4094H2.6332C2.8378 17.4974 5.1186 18.4366 8.38 18.6738L8.2684 20H11.4964L11.464 18.674C14.742 18.4366 17.0874 17.4974 17.3668 16.4094H20L19.618 15.4848H17.0938C16.3852 14.6714 14.4842 14.0528 12.1844 13.8184Z" fill="white"/>
</svg>