<svg width="27" height="27" viewBox="0 0 27 27" fill="none" xmlns="http://www.w3.org/2000/svg">
<path fill-rule="evenodd" clip-rule="evenodd" d="M13.8379 26.1081C6.62831 26.1081 0.783813 20.2636 0.783813 13.0541C0.783813 5.8445 6.62831 0 13.8379 0C21.0474 0 26.8919 5.8445 26.8919 13.0541C26.8919 20.2636 21.0474 26.1081 13.8379 26.1081ZM14.0197 12.3214C15.0886 12.3214 20.2857 9.39892 20.2857 9.39892L20.294 8.87676C20.294 8.3003 19.8262 7.83244 19.2481 7.83244H8.79133C8.21382 7.83244 7.74596 8.3003 7.74596 8.87676V9.34201C7.74596 9.34201 13 12.3214 14.0197 12.3214ZM7.75432 10.9654C7.75379 10.9654 13 13.7574 14.0197 13.7574C15.1377 13.7574 20.2857 10.9654 20.2857 10.9654L20.294 17.2314C20.294 17.8078 19.8262 18.2757 19.2481 18.2757H8.79133C8.21434 18.2757 7.74596 17.8078 7.74596 17.2314L7.75432 10.9654Z" fill="#0B66BF"/>
</svg>
