<svg width="36" height="36" viewBox="0 0 36 36" fill="none" xmlns="http://www.w3.org/2000/svg">
<path d="M21 17.2501C21.4925 17.2501 21.9801 17.1531 22.4351 16.9647C22.89 16.7762 23.3034 16.5 23.6516 16.1518C23.9999 15.8036 24.2761 15.3902 24.4645 14.9352C24.653 14.4802 24.75 13.9926 24.75 13.5001C24.75 12.5056 24.3549 11.5517 23.6516 10.8485C22.9484 10.1452 21.9946 9.75012 21 9.75012C20.0054 9.75012 19.0516 10.1452 18.3483 10.8485C17.6451 11.5517 17.25 12.5056 17.25 13.5001C17.25 13.9926 17.347 14.4802 17.5355 14.9352C17.7239 15.3902 18.0001 15.8036 18.3483 16.1518C19.0516 16.855 20.0054 17.2501 21 17.2501ZM21 3.00012C26.79 3.00012 31.5 7.69512 31.5 13.5001C31.5 21.3751 21 33.0001 21 33.0001C21 33.0001 10.5 21.3751 10.5 13.5001C10.5 10.7153 11.6062 8.04463 13.5754 6.0755C15.5445 4.10637 18.2152 3.00012 21 3.00012ZM7.5 13.5001C7.5 20.2501 15.12 29.4901 16.5 31.2151L15 33.0001C15 33.0001 4.5 21.3751 4.5 13.5001C4.5 8.74512 7.665 4.72512 12 3.43512C9.24 5.91012 7.5 9.49512 7.5 13.5001Z" fill="#FC4C3F"/>
</svg>