<svg width="16" height="16" viewBox="0 0 16 16" fill="none" xmlns="http://www.w3.org/2000/svg">
<path d="M7.64997 5.42429C6.15412 5.42429 4.94254 6.63587 4.94254 8.13172C4.94254 9.62758 6.15412 10.8392 7.64997 10.8392C9.14583 10.8392 10.3574 9.62758 10.3574 8.13172C10.3574 6.63587 9.14583 5.42429 7.64997 5.42429ZM13.7011 7.45486C13.3897 4.63236 11.1493 2.39196 8.32683 2.08061V1.36314C8.32683 0.990866 8.02225 0.686279 7.64997 0.686279C7.2777 0.686279 6.97311 0.990866 6.97311 1.36314V2.08061C4.15061 2.39196 1.91021 4.63236 1.59886 7.45486H0.881387C0.509115 7.45486 0.204529 7.75945 0.204529 8.13172C0.204529 8.504 0.509115 8.80858 0.881387 8.80858H1.59886C1.91021 11.6311 4.15061 13.8715 6.97311 14.1828V14.9003C6.97311 15.2726 7.2777 15.5772 7.64997 15.5772C8.02225 15.5772 8.32683 15.2726 8.32683 14.9003V14.1828C11.1493 13.8715 13.3897 11.6311 13.7011 8.80858H14.4186C14.7908 8.80858 15.0954 8.504 15.0954 8.13172C15.0954 7.75945 14.7908 7.45486 14.4186 7.45486H13.7011ZM7.64997 12.8697C5.03053 12.8697 2.91196 10.7512 2.91196 8.13172C2.91196 5.51228 5.03053 3.39371 7.64997 3.39371C10.2694 3.39371 12.388 5.51228 12.388 8.13172C12.388 10.7512 10.2694 12.8697 7.64997 12.8697Z" fill="#0B66BF"/>
</svg>