<svg width="13" height="13" viewBox="0 0 13 13" fill="none" xmlns="http://www.w3.org/2000/svg">
<path d="M7.75299 1.52368H11.4762V5.24715H7.75297V1.52368H7.75299ZM8.51465 4.48545H10.7146V2.28538H8.51462V4.48545H8.51465Z" fill="#0B66BF"/>
<path d="M9.99543 3.00537H9.23377V3.76712H9.99543V3.00537Z" fill="#0B66BF"/>
<path d="M11.4762 11.4769H7.75297V7.75342H11.4762V11.4769ZM10.7146 8.51512H8.51462V10.7152H10.7146V8.51512Z" fill="#0B66BF"/>
<path d="M1.52338 8.13452H2.28504V10.7154H3.0308V10.1488H3.79245V10.7154H4.72221V11.4771H1.52338V8.13452Z" fill="#0B66BF"/>
<path d="M9.99543 9.23267H9.23377V9.99442H9.99543V9.23267Z" fill="#0B66BF"/>
<path d="M1.52338 1.52368H5.24664V5.24715H1.52338V1.52368ZM2.28504 4.48545H4.48498V2.28538H2.28504V4.48545Z" fill="#0B66BF"/>
<path d="M3.76584 3.00537H3.00418V3.76712H3.76584V3.00537Z" fill="#0B66BF"/>
<path d="M9.95288 6.11914H7.75299V6.88084H9.95288V6.11914Z" fill="#0B66BF"/>
<path d="M11.4762 6.11914H10.7145V6.88084H11.4762V6.11914Z" fill="#0B66BF"/>
<path d="M6.99125 6.11914H4.15663V6.88084H6.99125V6.11914Z" fill="#0B66BF"/>
<path d="M1.52342 7.37196V6.11914H3.39491V6.88084H2.28507V7.37196H1.52342Z" fill="#0B66BF"/>
<path d="M6.88036 3.04688H6.11871V5.24689H6.88036V3.04688Z" fill="#0B66BF"/>
<path d="M6.88036 1.52368H6.11871V2.28543H6.88036V1.52368Z" fill="#0B66BF"/>
<path d="M6.11871 9.95341H5.55211V9.19171H6.11871V7.75342H6.88036V11.4769H5.48395V10.7152H6.11871V9.95341Z" fill="#0B66BF"/>
<path d="M4.55422 9.08175H3.79256V8.51512H3.17453V7.75342H5.17225V8.51512H4.55422V9.08175Z" fill="#0B66BF"/>
<path d="M2.66671 0.00732422V0.769024H0.761656V2.67343H3.17147e-07V0.00732422H2.66671Z" fill="#0B66BF"/>
<path d="M12.2382 0.7617H10.3332V0H12.9999V2.6661H12.2382V0.7617Z" fill="#0B66BF"/>
<path d="M0.761656 12.2384H2.66671V13.0001H3.17147e-07V10.334H0.761656V12.2384Z" fill="#0B66BF"/>
<path d="M12.2383 10.334H13V13.0001H10.3333V12.2384H12.2383V10.334Z" fill="#0B66BF"/>
</svg>