<svg viewBox="0 0 14 14" fill="none" xmlns="http://www.w3.org/2000/svg">
<path d="M13.2517 10.8653L10.9859 8.59593C11.3978 7.77072 11.6725 6.80798 11.6725 5.84523C11.6725 2.61316 9.06333 0 5.83623 0C2.60914 0 0 2.61316 0 5.84523C0 9.07731 2.60914 11.6905 5.83623 11.6905C6.7975 11.6905 7.75876 11.4154 8.5827 11.0028L10.8485 13.2721C11.5351 13.9598 12.5651 13.9598 13.2517 13.2721C13.8696 12.5844 13.8696 11.5529 13.2517 10.8653ZM5.83623 10.3151C3.36442 10.3151 1.37323 8.32086 1.37323 5.84523C1.37323 3.36961 3.36442 1.37535 5.83623 1.37535C8.30805 1.37535 10.2992 3.36961 10.2992 5.84523C10.2992 8.32086 8.30805 10.3151 5.83623 10.3151Z" fill="white"/>
</svg>