<svg width="20" height="24" viewBox="0 0 20 24" fill="none" xmlns="http://www.w3.org/2000/svg">
    <path d="M1.59283 9.13569C1.59283 14.835 7.49883 20.0131 9.2051 21.4135C9.48841 21.646 9.90556 21.646 10.1889 21.4135C11.8951 20.013 17.8011 14.835 17.8011 9.13569C17.5447 5.01856 14.0147 1.7561 9.69696 1.7561C5.37918 1.7561 1.84919 5.01856 1.59283 9.13569V9.13569ZM4.32882 9.12717C4.31341 8.96629 4.30514 8.80336 4.30514 8.63859C4.30514 6.67178 6.71916 3.89268 9.69701 3.89268C12.6749 3.89268 15.0889 6.50169 15.0889 8.63859C15.0889 8.80341 15.0806 8.96629 15.0652 9.12717C15.0806 9.28804 15.0889 9.45097 15.0889 9.61574C15.0889 12.4982 12.6749 14.835 9.69701 14.835C6.71916 14.835 4.30514 12.4982 4.30514 9.61574C4.30508 9.45097 4.31336 9.2881 4.32882 9.12717V9.12717Z" fill="#D83333"/>
    <path d="M9.69696 14.331C12.5046 14.331 15.0651 12.115 15.0651 9.12709C14.8106 6.47374 12.5046 4.39648 9.69696 4.39648C6.88937 4.39648 4.58333 6.47379 4.32883 9.12714C4.32883 12.2946 6.88937 14.331 9.69696 14.331Z" fill="#EDF3F7"/>
    <path d="M9.69697 13.8578C6.88938 13.8578 4.58333 11.7805 4.32883 9.1272C4.31342 9.28807 4.30515 9.451 4.30515 9.61577C4.30515 12.4983 6.71917 14.835 9.69702 14.835C12.6749 14.835 15.0889 12.4983 15.0889 9.61577C15.0889 9.451 15.0806 9.28807 15.0652 9.1272C14.8106 11.7805 12.5046 13.8578 9.69697 13.8578Z" fill="#D9E6EF"/>
    <path d="M9.69696 3.41943C6.7191 3.41943 4.30508 5.75618 4.30508 8.63866C4.30508 8.80343 4.31336 8.96636 4.32877 9.12724C4.58333 6.47389 6.88932 4.39658 9.69691 4.39658C12.5045 4.39658 14.8105 6.47389 15.065 9.12724C15.0805 8.96636 15.0887 8.80343 15.0887 8.63866C15.0888 5.75618 12.6748 3.41943 9.69696 3.41943Z" fill="#E7635F"/>
    <path d="M10.1888 20.9402C9.90551 21.1727 9.48837 21.1727 9.20506 20.9402C7.49879 19.5398 1.92096 14.565 1.59279 9.13574C1.58288 9.29462 1.57727 9.45455 1.57727 9.61585C1.57727 15.236 7.44684 20.4744 9.20506 21.9174C9.48837 22.1499 9.90551 22.1499 10.1888 21.9174C11.947 20.4744 17.8166 15.236 17.8166 9.61585C17.8166 9.4546 17.811 9.29462 17.8011 9.13574C17.4729 14.565 11.8951 19.5398 10.1888 20.9402Z" fill="#C92424"/>
</svg>