<svg width="13" height="17" viewBox="0 0 13 17" fill="none" xmlns="http://www.w3.org/2000/svg">
<path d="M3.56875 0.931328L1.1275 3.37258C0.8475 3.64383 1.04 4.11633 1.43375 4.11633H3V9.37508C3 9.85633 3.39375 10.2501 3.875 10.2501C4.35625 10.2501 4.75 9.85633 4.75 9.37508V4.11633H6.31625C6.71 4.11633 6.9025 3.64383 6.6225 3.37258L4.18125 0.931328C4.015 0.765078 3.735 0.765078 3.56875 0.931328ZM10 12.8838V7.62508C10 7.14383 9.60625 6.75008 9.125 6.75008C8.64375 6.75008 8.25 7.14383 8.25 7.62508V12.8838H6.68375C6.29 12.8838 6.0975 13.3563 6.3775 13.6276L8.81875 16.0601C8.99375 16.2263 9.265 16.2263 9.44 16.0601L11.8813 13.6276C12.1613 13.3563 11.96 12.8838 11.575 12.8838H10V12.8838Z" fill="#0B66BF"/>
</svg>